<svg xmlns="http://www.w3.org/2000/svg" width="1em" height="1em" viewBox="0 0 24 24">
    <style>
        svg {
            background: conic-gradient(hsl(0deg 100% 50%), hsl(20deg 100% 50%), hsl(40deg 100% 50%), hsl(60deg 100% 50%), hsl(80deg 100% 50%), hsl(100deg 100% 50%), hsl(120deg 100% 50%), hsl(140deg 100% 50%), hsl(160deg 100% 50%), hsl(180deg 100% 50%), hsl(200deg 100% 50%), hsl(220deg 100% 50%), hsl(240deg 100% 50%), hsl(260deg 100% 50%), hsl(280deg 100% 50%), hsl(300deg 100% 50%), hsl(320deg 100% 50%), hsl(340deg 100% 50%));
        }
    </style>
    <path fill="#08081a"
        d="M11 22q-1.25-.125-2.4-.612T6.4 20.1l1.4-1.45q.725.525 1.538.85t1.662.45zm2 0v-2.05q2.6-.375 4.3-2.337T19 13.05q0-2.925-2.037-4.962T12 6.05h-.2l1.6 1.6l-1.4 1.4l-4-4l4-4l1.4 1.45l-1.55 1.55H12q1.875 0 3.513.713t2.85 1.925q1.212 1.212 1.925 2.85T21 13.05q0 3.425-2.275 5.963T13 22m-8.05-3.35q-.8-1.05-1.288-2.2t-.612-2.4H5.1q.125.85.45 1.663t.85 1.537zm-1.9-6.6q.15-1.275.625-2.45T4.95 7.45l1.45 1.4q-.525.725-.85 1.538T5.1 12.05z" />
</svg>